<svg xmlns="http://www.w3.org/2000/svg" viewBox="0 0 16 16" shape-rendering="crispEdges"><rect x="11" y="1" width="3" height="1" fill="#2e2417"/><rect x="3" y="2" width="1" height="1" fill="#e0a83c"/><rect x="10" y="2" width="1" height="1" fill="#2e2417"/><rect x="11" y="2" width="3" height="1" fill="#d6e7ef"/><rect x="14" y="2" width="1" height="1" fill="#2e2417"/><rect x="0" y="3" width="5" height="1" fill="#e0a83c"/><rect x="9" y="3" width="1" height="1" fill="#2e2417"/><rect x="10" y="3" width="5" height="1" fill="#d6e7ef"/><rect x="15" y="3" width="1" height="1" fill="#2e2417"/><rect x="3" y="4" width="1" height="1" fill="#e0a83c"/><rect x="9" y="4" width="1" height="1" fill="#2e2417"/><rect x="10" y="4" width="5" height="1" fill="#d6e7ef"/><rect x="15" y="4" width="1" height="1" fill="#2e2417"/><rect x="9" y="5" width="1" height="1" fill="#2e2417"/><rect x="10" y="5" width="5" height="1" fill="#d6e7ef"/><rect x="15" y="5" width="1" height="1" fill="#2e2417"/><rect x="3" y="6" width="1" height="1" fill="#e0a83c"/><rect x="10" y="6" width="1" height="1" fill="#2e2417"/><rect x="11" y="6" width="3" height="1" fill="#d6e7ef"/><rect x="14" y="6" width="1" height="1" fill="#2e2417"/><rect x="0" y="7" width="5" height="1" fill="#e0a83c"/><rect x="11" y="7" width="3" height="1" fill="#2e2417"/><rect x="3" y="8" width="1" height="1" fill="#e0a83c"/><rect x="11" y="8" width="1" height="1" fill="#7a5a3a"/><rect x="10" y="9" width="1" height="1" fill="#7a5a3a"/><rect x="3" y="10" width="1" height="1" fill="#e0a83c"/><rect x="9" y="10" width="1" height="1" fill="#7a5a3a"/><rect x="0" y="11" width="5" height="1" fill="#e0a83c"/><rect x="8" y="11" width="1" height="1" fill="#7a5a3a"/><rect x="3" y="12" width="1" height="1" fill="#e0a83c"/><rect x="7" y="12" width="1" height="1" fill="#7a5a3a"/><rect x="6" y="13" width="1" height="1" fill="#7a5a3a"/><rect x="5" y="14" width="1" height="1" fill="#7a5a3a"/></svg>
